<?xml version="1.0" standalone="no"?>
<!DOCTYPE svg PUBLIC "-//W3C//DTD SVG 20010904//EN"
 "http://www.w3.org/TR/2001/REC-SVG-20010904/DTD/svg10.dtd">
<svg version="1.0" xmlns="http://www.w3.org/2000/svg"
 width="477.000000pt" height="443.988882pt" viewBox="0 0 477.000000 443.988882"
 preserveAspectRatio="xMidYMid meet">
<metadata>
Created by Potrace Professional 1.1m
</metadata>
<g transform="translate(-0.500000,461.000000) rotate(-360.00) scale(0.095238,-0.095238)"
fill="#000000" stroke="none">
<path d="M1171 4824 c-102 -19 -275 -76 -364 -121 -139 -69 -244 -147 -366
-271 -176 -177 -287 -356 -362 -582 -63 -189 -74 -262 -74 -495 0 -241 18
-347 90 -539 87 -233 186 -376 451 -655 95 -100 552 -581 1015 -1069 462 -489
854 -894 869 -901 43 -19 132 -16 169 7 49 30 2037 2132 2117 2238 130 173
224 379 273 599 21 95 25 138 25 320 0 233 -11 306 -74 495 -71 214 -183 400
-343 565 -165 172 -341 285 -554 356 -153 51 -270 70 -443 70 -376 0 -691
-132 -977 -408 l-113 -110 -119 115 c-66 62 -154 137 -197 166 -165 111 -355
188 -542 221 -114 20 -368 19 -481 -1z"/>
</g>
</svg>
