<?xml version="1.0" encoding="UTF-8" standalone="no"?>
<!-- Generator: Adobe Illustrator 19.0.0, SVG Export Plug-In . SVG Version: 6.00 Build 0)  -->

<svg
   version="1.1"
   id="Capa_1"
   x="0px"
   y="0px"
   viewBox="0 0 477.534 477.534"
   style="enable-background:new 0 0 477.534 477.534;"
   xml:space="preserve"
   sodipodi:docname="heart-red.svg"
   inkscape:version="1.1 (c68e22c387, 2021-05-23)"
   xmlns:inkscape="http://www.inkscape.org/namespaces/inkscape"
   xmlns:sodipodi="http://sodipodi.sourceforge.net/DTD/sodipodi-0.dtd"
   xmlns="http://www.w3.org/2000/svg"
   xmlns:svg="http://www.w3.org/2000/svg"><defs
   id="defs904" /><sodipodi:namedview
   id="namedview902"
   pagecolor="#ffffff"
   bordercolor="#666666"
   borderopacity="1.0"
   inkscape:pageshadow="2"
   inkscape:pageopacity="0.0"
   inkscape:pagecheckerboard="0"
   showgrid="false"
   inkscape:zoom="1.6396738"
   inkscape:cx="266.51642"
   inkscape:cy="242.42626"
   inkscape:window-width="1920"
   inkscape:window-height="1001"
   inkscape:window-x="-9"
   inkscape:window-y="-9"
   inkscape:window-maximized="1"
   inkscape:current-layer="Capa_1" />
<g
   id="g869">
	<g
   id="g867">
		<path
   d="M438.482,58.61c-24.7-26.549-59.311-41.655-95.573-41.711c-36.291,0.042-70.938,15.14-95.676,41.694l-8.431,8.909    l-8.431-8.909C181.284,5.762,98.662,2.728,45.832,51.815c-2.341,2.176-4.602,4.436-6.778,6.778    c-52.072,56.166-52.072,142.968,0,199.134l187.358,197.581c6.482,6.843,17.284,7.136,24.127,0.654    c0.224-0.212,0.442-0.43,0.654-0.654l187.29-197.581C490.551,201.567,490.551,114.77,438.482,58.61z M413.787,234.226h-0.017    L238.802,418.768L63.818,234.226c-39.78-42.916-39.78-109.233,0-152.149c36.125-39.154,97.152-41.609,136.306-5.484    c1.901,1.754,3.73,3.583,5.484,5.484l20.804,21.948c6.856,6.812,17.925,6.812,24.781,0l20.804-21.931    c36.125-39.154,97.152-41.609,136.306-5.484c1.901,1.754,3.73,3.583,5.484,5.484C453.913,125.078,454.207,191.516,413.787,234.226    z"
   id="path865" />
	</g>
</g>
<g
   id="g871">
</g>
<g
   id="g873">
</g>
<g
   id="g875">
</g>
<g
   id="g877">
</g>
<g
   id="g879">
</g>
<g
   id="g881">
</g>
<g
   id="g883">
</g>
<g
   id="g885">
</g>
<g
   id="g887">
</g>
<g
   id="g889">
</g>
<g
   id="g891">
</g>
<g
   id="g893">
</g>
<g
   id="g895">
</g>
<g
   id="g897">
</g>
<g
   id="g899">
</g>
<path
   style="fill:#fa1965;fill-opacity:1"
   d="m 235.06157,459.91694 c -1.03169,-0.26495 -2.99758,-1.1122 -4.36864,-1.88278 -1.59507,-0.89648 -36.87044,-37.66715 -97.94879,-102.10077 C 80.243362,300.54856 35.655198,253.27199 33.659323,250.87437 17.562329,231.53718 6.6290928,207.38606 2.0876058,181.13359 0.55564691,172.27796 0.22634447,149.91061 1.4860198,140.2718 5.066646,112.87349 15.642534,87.966099 32.820081,66.476636 72.899572,16.336362 143.34475,2.64623 198.8184,34.216957 c 11.01291,6.26758 17.38799,11.244122 29.04017,22.669465 l 11.05591,10.840679 8.46454,-8.611752 c 4.6555,-4.736464 10.79733,-10.471193 13.6485,-12.743843 34.39965,-27.419674 77.99242,-35.962781 119.48585,-23.416278 50.864,15.379914 88.20547,61.23526 95.53461,117.316572 1.25968,9.63881 0.93037,32.00616 -0.60158,40.86179 -4.51326,26.08929 -15.07767,49.55174 -31.23926,69.37909 -1.84308,2.26112 -46.48457,49.62861 -99.20331,105.26108 -75.72114,79.9062 -96.45401,101.45487 -98.71742,102.60183 -3.13709,1.58968 -8.28435,2.29648 -11.22484,1.54135 z m 92.78887,-134.47667 c 48.61498,-51.2823 90.202,-95.4965 92.41559,-98.25377 10.67215,-13.29333 18.1335,-29.33734 21.98438,-47.27267 1.2037,-5.60616 1.3787,-8.22669 1.40516,-21.04077 0.0268,-12.96964 -0.1309,-15.43286 -1.38426,-21.62284 C 437.571,114.03673 426.77115,94.20104 410.02218,78.019444 380.74665,49.73563 337.81,42.774793 300.9177,60.331563 c -13.02323,6.197658 -20.50483,12.260341 -38.04874,30.832611 -7.38669,7.819671 -14.21761,14.502826 -15.72852,15.388276 -3.60652,2.11356 -9.66386,2.57755 -14.23816,1.09064 -2.95483,-0.96048 -4.19511,-2.02099 -12.39274,-10.59649 C 197.57234,73.05211 191.49295,67.853212 178.82991,61.403547 155.48114,49.511315 128.83979,47.524758 103.87444,55.814367 70.353663,66.944764 44.207472,97.37522 36.25787,134.51047 c -4.253375,19.86895 -3.105298,40.04727 3.388713,59.55915 4.136364,12.4281 11.492064,25.71896 19.574944,35.36956 5.355609,6.39436 179.278893,189.64072 179.790333,189.42793 0.24623,-0.10246 40.22359,-42.14453 88.83858,-93.42684 z"
   id="path1215" /><path
   style="fill:#fa1965;fill-opacity:1;stroke-width:0.609877"
   d=""
   id="path1291" /><path
   style="fill:#fa1965;fill-opacity:1;stroke-width:0.609877"
   d=""
   id="path1330" /><path
   style="fill:#fa1965;fill-opacity:1;stroke-width:0.609877;stroke:#fa1965;stroke-opacity:1"
   d="M 150.63972,325.31632 C 102.16971,274.16047 61.046072,230.48454 59.253852,228.25868 26.41645,187.47613 26.003044,130.65214 58.243242,89.347038 85.24152,54.757713 129.97554,42.334613 170.23271,58.246399 c 16.3005,6.442827 25.41948,13.565236 47.18858,36.856797 8.14844,8.718314 10.38091,10.750324 13.53417,12.318864 3.44922,1.71577 4.18839,1.85756 8.53828,1.63787 8.01503,-0.4048 7.45977,0.0217 27.90347,-21.430573 13.22075,-13.872963 20.38706,-19.65746 31.41489,-25.357476 27.12674,-14.021141 58.22739,-14.486363 85.7156,-1.282184 24.7586,11.892989 44.56434,35.244165 53.55821,63.145673 4.27473,13.26143 4.94332,17.81336 4.96796,33.82288 0.0194,12.62146 -0.14638,15.16385 -1.38911,21.30052 -3.53881,17.47479 -11.57251,34.70014 -22.44438,48.12385 -1.53945,1.90079 -41.67346,44.4516 -89.18668,94.55737 -47.51322,50.10577 -87.48546,92.29065 -88.82719,93.74418 l -2.43951,2.64279 z"
   id="path1673" /><path
   style="fill:#fa1965;fill-opacity:1;stroke-width:0.609877;stroke:#fa1965;stroke-opacity:1"
   d=""
   id="path1712" /><path
   style="fill:#fa1965;fill-opacity:1;stroke-width:0.609877;stroke:#fa1965;stroke-opacity:1"
   d="M 203.38323,380.45114 C 123.71798,296.37351 68.774653,238.14197 61.142462,229.69765 55.8281,223.8178 50.557286,215.70632 46.03199,206.4435 c -4.531511,-9.27554 -7.031303,-16.5912 -9.273699,-27.13955 -1.450574,-6.82357 -1.624275,-8.96728 -1.655479,-20.43089 -0.03652,-13.41802 0.358616,-16.97342 3.117298,-28.04892 2.9607,-11.88655 8.176679,-23.3834 15.912363,-35.073389 6.002299,-9.070537 18.480225,-21.747181 26.952435,-27.381667 10.80574,-7.186411 22.342572,-12.073503 35.006622,-14.829079 5.25715,-1.143906 8.07115,-1.34663 18.69137,-1.346556 10.63489,7.4e-5 13.39654,0.199587 18.48763,1.335625 14.14735,3.156868 27.26421,8.917538 37.31616,16.388532 3.36165,2.498508 11.75245,10.409998 21.65064,20.413887 11.89328,12.020277 16.88659,16.661227 18.9062,17.572047 3.46071,1.56075 11.69433,1.73995 15.11406,0.32895 1.51988,-0.62711 7.59589,-6.31584 18.4292,-17.254548 20.03244,-20.227333 25.10962,-24.179013 39.52148,-30.760437 6.44172,-2.941723 12.7512,-4.998557 20.51201,-6.68673 8.93887,-1.944428 27.75554,-1.939135 36.72219,0.01033 23.58736,5.128192 43.53203,17.750406 58.37256,36.941758 10.11698,13.082997 17.9811,30.154627 21.53075,46.739547 1.62083,7.57291 1.62427,34.55411 0.005,42.08154 -2.84661,13.23598 -9.16622,28.43426 -16.42892,39.51054 -4.53003,6.90856 -7.6024,10.31768 -44.08926,48.92169 -43.01424,45.51013 -136.78845,144.57173 -139.5711,147.44072 l -2.51676,2.59483 z"
   id="path1751" /><path
   style="fill:#fa1965;fill-opacity:1;stroke-width:0.609877;stroke:#fa1965;stroke-opacity:1"
   d=""
   id="path1790" /><path
   style="fill:#fa1965;fill-opacity:1;stroke-width:0.609877;stroke:#fa1965;stroke-opacity:1"
   d=""
   id="path1829" /><path
   style="fill:#fa1965;fill-opacity:1;stroke-width:0.609877;stroke:#fa1965;stroke-opacity:1"
   d="M 208.25663,385.63297 C 127.6986,300.65387 70.177845,239.68329 61.188096,229.74395 54.058544,221.8613 46.221376,208.67577 41.901403,197.29534 30.68429,167.74525 32.87157,133.6784 47.75545,106.11867 55.468248,91.837266 69.302227,76.162862 81.084908,68.355169 97.100202,57.742775 112.67906,52.691479 131.42858,52.031721 c 16.75382,-0.589535 30.58091,2.389238 45.7408,9.853949 11.39925,5.612975 16.68151,9.887558 35.06795,28.378171 18.4183,18.522649 18.96573,18.911869 26.56975,18.890819 7.71761,-0.0214 8.27728,-0.411 25.26983,-17.59264 8.2181,-8.309546 16.72589,-16.577786 18.9062,-18.373867 11.57367,-9.534072 25.68763,-16.208525 41.47166,-19.611839 5.44917,-1.174936 8.2219,-1.380753 18.60126,-1.380753 10.30096,0 13.15986,0.209219 18.38644,1.345544 26.09762,5.673953 48.11715,20.862259 63.21048,43.600382 7.10631,10.705663 13.90856,27.036343 16.69501,40.080923 1.61708,7.57028 1.62053,34.55682 0.005,42.08154 -3.85412,17.95572 -13.56269,38.00532 -23.92088,49.40007 -6.29853,6.92886 -19.88412,21.37376 -57.94192,61.60691 -8.40362,8.88385 -25.26574,26.71859 -37.47147,39.63274 -12.20573,12.91415 -24.43166,25.81306 -27.16872,28.66424 -2.73707,2.85117 -15.34391,16.16175 -28.01522,29.57905 -12.67131,13.4173 -24.1778,25.5653 -25.56998,26.99555 l -2.53124,2.60045 z"
   id="path1868" /><path
   style="fill:#fa1965;fill-opacity:1;stroke-width:0.609877;stroke:#fa1965;stroke-opacity:1"
   d="M 202.42466,379.51774 C 126.89677,299.81821 69.783963,239.27919 60.982945,229.59089 54.292517,222.22596 46.231617,208.6101 41.859232,197.28855 34.033973,177.02637 32.62505,152.71992 38.036173,131.3339 43.059957,111.47873 52.350885,95.187184 67.053349,80.452583 81.465995,66.008434 95.972978,58.034458 115.98894,53.55442 c 5.48127,-1.226836 7.90152,-1.405144 18.79396,-1.384618 10.55998,0.0199 13.46405,0.232787 18.69138,1.370203 8.12882,1.768754 17.30863,5.001592 24.55097,8.646076 10.49648,5.28203 15.57928,9.434555 33.47866,27.351283 19.01311,19.031536 19.84579,19.623896 27.56803,19.611336 7.36968,-0.012 7.88247,-0.38109 26.4626,-19.047735 18.23465,-18.319554 23.34517,-22.445669 34.83008,-28.12097 7.84184,-3.875073 15.50514,-6.582392 23.88409,-8.437866 5.0718,-1.123122 7.93386,-1.330671 18.50239,-1.341742 10.66548,-0.01117 13.41182,0.185213 18.69137,1.336583 39.45345,8.604043 68.61203,38.374848 79.27648,80.941 1.32341,5.28226 1.57386,7.93591 1.87073,19.82101 0.3792,15.18104 -0.12347,20.95885 -2.67945,30.79881 -2.132,8.2077 -5.04692,15.71541 -9.23639,23.7893 -6.31426,12.16876 -8.10957,14.50705 -24.81447,32.31942 -19.40865,20.69535 -158.53678,167.79088 -163.69972,173.07424 l -3.4479,3.52832 z"
   id="path1907" /><path
   style="fill:#fa1965;fill-opacity:1;stroke-width:0.609877;stroke:#fa1965;stroke-opacity:1"
   d="m 442.91248,158.56812 c 0,-1.17401 0.12551,-1.65429 0.27891,-1.06728 0.1534,0.587 0.1534,1.54756 0,2.13457 -0.1534,0.58701 -0.27891,0.10673 -0.27891,-1.06729 z"
   id="path1946" /><path
   style="fill:#fa1965;fill-opacity:1;stroke:#fa1965;stroke-width:0.609877;stroke-opacity:1"
   d="M 232.36329,458.37756 C 228.85488,456.4702 200.1204,426.61805 105.20385,326.27207 29.312903,246.04 32.302669,249.3065 25.670296,239.37688 14.47944,222.62255 7.1153743,204.7377 2.9709799,184.24786 1.8951483,178.92896 1.6110513,174.90469 1.3725564,161.60597 1.048408,143.53111 1.6173839,137.53599 4.954702,123.86199 11.966313,95.133323 28.338714,67.931817 49.667998,49.574232 80.726574,22.842888 121.54144,12.196333 161.33001,20.447206 c 18.45103,3.82615 37.54826,12.605535 52.04727,23.927179 2.83351,2.21257 9.60124,8.365163 15.0394,13.67243 5.43815,5.307266 10.10037,9.649576 10.36049,9.649576 0.26012,0 4.89259,-4.328201 10.29437,-9.618224 5.40177,-5.290023 12.01697,-11.286707 14.70043,-13.325965 24.52508,-18.637487 52.84002,-27.847718 82.63839,-26.880457 20.11142,0.652822 37.44881,5.010773 54.52521,13.705537 12.30505,6.265342 22.70108,13.74727 32.6279,23.482002 12.10895,11.874625 20.50278,23.551991 28.15354,39.166773 5.66151,11.554823 9.57368,22.943243 12.29101,35.779363 l 1.97967,9.35156 0.0108,18.9062 c 0.01,17.19836 -0.11263,19.5146 -1.35571,25.64124 -4.23274,20.86146 -11.38362,38.28241 -22.71338,55.3342 -6.75126,10.16095 -5.14592,8.4069 -83.85022,91.61785 -93.42816,98.77791 -119.65937,126.02841 -122.70601,127.47414 -1.26183,0.59878 -4.08775,1.19 -6.27983,1.31383 -3.34006,0.18868 -4.43013,-0.0165 -6.73006,-1.26688 z m 11.37495,-43.84647 c 2.29731,-2.45007 19.9575,-21.04918 39.24487,-41.33136 54.97755,-57.81316 123.48024,-130.37306 133.27665,-141.17022 13.15236,-14.49593 20.6472,-29.05928 26.03598,-50.59099 1.26631,-5.05978 1.37279,-6.84777 1.36189,-22.8704 -0.0107,-15.82152 -0.13313,-17.88699 -1.36344,-23.01367 C 436.68352,112.17481 427.0746,94.619008 411.32851,78.979123 397.77659,65.51861 381.01018,56.447465 362.05235,52.319198 c -5.28602,-1.151086 -8.05731,-1.347696 -18.99632,-1.347696 -11.03208,0 -13.69509,0.192047 -19.21113,1.385439 -13.10681,2.835648 -24.41992,7.532529 -35.04159,14.548268 -5.06791,3.347412 -9.12528,7.044786 -23.50664,21.420974 -11.45258,11.448454 -18.21364,17.753887 -19.82102,18.485287 -3.07592,1.39962 -9.83357,1.50387 -12.95453,0.19986 -1.44954,-0.60567 -8.50531,-7.140949 -19.9539,-18.481967 C 198.16677,74.264215 193.7108,70.22495 188.73069,66.921931 178.14773,59.902866 166.79808,55.187207 153.6891,52.362528 c -5.40832,-1.165369 -8.29968,-1.384352 -18.60126,-1.408809 -10.35581,-0.02458 -13.23147,0.180628 -19.0451,1.359091 -41.518314,8.416052 -72.83229,42.047927 -81.045112,87.04417 -1.695732,9.29055 -1.582449,29.2723 0.219556,38.72722 3.454216,18.12387 12.552497,38.15287 22.99433,50.61982 8.512391,10.16332 179.724226,190.28175 180.872576,190.28175 0.26248,0 2.35685,-2.00461 4.65415,-4.45468 z"
   id="path2059" /><path
   style="fill:#fa1965;fill-opacity:1;stroke:#fa1965;stroke-width:0.609877;stroke-opacity:1"
   d=""
   id="path2098" /><path
   style="fill:#fa1965;fill-opacity:1;stroke:#fa1965;stroke-width:0.609877;stroke-opacity:1"
   d="M 232.5579,458.62374 C 229.15226,456.88547 199.79706,426.42773 107.64336,329.01761 60.770174,279.47078 40.301648,257.72123 35.430897,252.28571 22.678765,238.05496 11.644929,217.24544 5.8110401,196.42345 2.2536133,183.72648 1.7533113,179.9124 1.3980426,162.78073 1.030078,145.03685 1.4782933,139.0167 4.0274311,127.46438 10.838434,96.597901 28.014274,67.535662 50.580928,48.693913 76.425968,27.114915 106.19475,16.765366 139.27135,17.859407 c 19.58032,0.647638 34.89761,4.499244 52.7499,13.26422 13.72469,6.738433 21.63207,12.442852 34.5482,24.923202 3.68976,3.565269 7.99995,7.689996 9.57821,9.166061 l 2.86955,2.683754 9.02306,-8.879357 C 259.5652,47.675894 262.17534,45.468188 271.0905,39.520964 300.76656,19.724328 335.91502,13.171526 371.39124,20.821682 c 12.63708,2.725083 27.9564,9.071391 40.15298,16.634112 27.87974,17.287356 49.84153,46.988141 59.57119,80.563146 0.85493,2.95019 2.40731,9.48478 3.44974,14.5213 l 1.89531,9.15733 -0.32015,18.65072 c -0.3409,19.85997 -0.70321,22.81886 -4.41735,36.07516 -4.8885,17.44774 -13.86139,35.78432 -23.94862,48.94023 -5.38429,7.02228 -26.98248,30.11718 -114.74567,122.69733 -66.94814,70.62265 -84.65183,88.84427 -87.74511,90.31212 -1.21254,0.57539 -3.99813,1.15999 -6.19021,1.29912 -3.20689,0.20352 -4.48381,-0.001 -6.53545,-1.04851 z m 44.71564,-79.58494 c 93.83012,-98.7695 140.05427,-147.97417 144.95245,-154.29898 8.83144,-11.40362 14.96709,-24.39463 19.05532,-40.34582 1.87003,-7.29635 2.09956,-9.0669 2.09956,-16.19572 0,-4.4021 -0.11475,-7.88907 -0.255,-7.74882 -0.14025,0.14025 -0.32564,3.41072 -0.412,7.2677 -0.19223,8.58645 -1.1642,13.96956 -4.17782,23.1384 -4.04257,12.29938 -11.04024,25.91081 -17.41997,33.88426 -4.77397,5.96655 -24.67984,27.14744 -133.54743,142.10143 -50.21344,53.0207 -49.63769,52.40472 -48.6831,52.08418 0.40063,-0.13453 17.67523,-18.08351 38.38799,-39.88663 z m -54.77789,22.10806 C 195.77027,373.16082 77.916686,248.43047 66.156871,235.6857 55.896162,224.56559 51.670638,218.55274 45.54406,206.35399 39.666581,194.65123 34.822361,176.79067 34.775093,166.649 c -0.0066,-1.42559 -0.28977,-2.59198 -0.629166,-2.59198 -0.3585,0 -0.494493,0.95837 -0.324533,2.28704 0.160904,1.25787 0.591974,4.61982 0.957934,7.471 2.367519,18.44527 12.264533,41.38797 23.637828,54.79587 9.36255,11.03745 173.250924,183.66619 174.366994,183.66619 0.18722,0 -4.44261,-5.00862 -10.2885,-11.13026 z M 34.708008,156.89096 c -0.05226,-3.33171 -0.08481,-3.40307 -0.652043,-1.42927 -0.546072,1.90018 -0.291612,4.93606 0.413727,4.93606 0.161326,0 0.268568,-1.57805 0.238316,-3.50679 z m 408.786752,-7.95539 c -0.1751,-8.71907 -1.25155,-14.40389 -4.7586,-25.13046 -12.13306,-37.109861 -40.91848,-63.713722 -77.32034,-71.460479 -8.96033,-1.906865 -27.73055,-1.880102 -36.96105,0.0527 -13.65895,2.860093 -26.99661,8.554689 -37.4708,15.998392 -3.67162,2.609317 -10.88769,9.31022 -22.09559,20.518144 -11.5934,11.593433 -17.4336,17.002073 -19.24779,17.825523 -3.23728,1.46935 -9.9168,1.61009 -13.10922,0.27622 -1.40829,-0.58842 -7.87312,-6.4983 -17.51439,-16.010925 C 193.32178,69.598959 190.22109,67.07663 178.16868,61.029554 170.61511,57.239687 161.80777,54.217112 153.07923,52.419141 144.14366,50.578529 125.83011,50.545715 116.6969,52.353953 89.980445,57.643404 67.03285,73.418017 51.59082,97.109106 42.043595,111.75642 35.068404,132.08088 34.475381,146.98045 l -0.254877,6.40371 0.545814,-5.54895 c 3.6275,-36.87866 26.271438,-70.756217 57.841942,-86.537236 7.235207,-3.616634 18.17638,-7.208398 25.98266,-8.52958 7.83282,-1.325673 24.74934,-1.35932 32.057,-0.06376 10.87394,1.927815 23.14926,6.409424 32.26967,11.781364 8.14527,4.797574 10.22076,6.602095 29.62468,25.756977 8.38582,8.278189 16.57351,15.825165 18.19488,16.771075 2.60405,1.51921 3.53785,1.71712 8.00505,1.69657 3.57759,-0.0165 5.74841,-0.34785 7.41998,-1.13275 1.42263,-0.66801 9.15795,-7.79823 19.43943,-17.918762 9.39211,-9.245094 18.84155,-18.122939 20.99876,-19.728543 11.21256,-8.345463 26.40064,-14.772048 40.56288,-17.163512 7.05182,-1.190786 23.35113,-1.364225 29.94451,-0.318636 20.87824,3.310907 38.29887,12.356747 53.97973,28.02953 11.54057,11.534611 19.09433,23.166293 25.16678,38.753083 4.70767,12.0837 6.50492,20.65383 6.51211,31.05293 0.002,3.6618 0.19971,6.46271 0.43818,6.22425 0.23846,-0.23846 0.36905,-3.64615 0.2902,-7.57264 z"
   id="path2137" /><path
   style="fill:#fa1965;fill-opacity:1;stroke:#fa1965;stroke-width:0.609877;stroke-opacity:1"
   d="M 232.66823,458.70649 C 229.37622,457.20282 207.97427,435.10815 126.54864,349.15216 60.800361,279.74576 37.128034,254.53414 32.687861,249.18806 16.667405,229.89904 4.0951576,200.28857 1.7564782,176.33769 0.68517829,165.36629 1.4071357,139.04365 2.9882113,131.42858 14.596323,75.519393 52.803034,33.801593 103.81276,21.338533 c 11.81468,-2.886645 21.59987,-3.860935 34.93435,-3.478334 20.43354,0.586291 35.3198,4.2889 53.8963,13.405449 13.37444,6.563601 21.27813,12.470253 37.58531,28.088548 l 8.53828,8.177593 9.65823,-9.21833 c 15.1174,-14.428857 22.04522,-19.568992 35.77764,-26.545432 12.3053,-6.251428 23.81395,-10.110076 37.50746,-12.575597 8.65941,-1.559131 27.01505,-1.874893 36.76397,-0.632431 41.23512,5.255258 76.04827,28.466205 97.88649,65.263801 8.47798,14.285463 13.98074,28.62953 17.86132,46.5592 l 2.20627,10.19374 -0.30019,19.51608 c -0.32252,20.96774 -0.55913,22.92942 -4.43819,36.79688 -5.02827,17.97579 -15.76277,39.06986 -26.27657,51.63534 -7.84315,9.37368 -114.70439,122.6272 -168.89592,178.99901 -26.63934,27.71113 -29.84954,30.8005 -32.87909,31.64156 -3.59262,0.99737 -8.20399,0.80438 -10.97019,-0.45912 z m 59.20753,-95.23033 c 33.22051,-34.98527 94.68841,-100.05773 109.98841,-116.43828 19.77387,-21.17038 22.82148,-24.88634 28.12238,-34.28978 6.65529,-11.80604 12.55722,-29.657 13.06515,-39.51688 l 0.2684,-5.21 -0.58895,5.18396 c -1.71973,15.13707 -10.20189,36.20737 -19.96915,49.60484 -4.18606,5.74188 -15.99459,18.34295 -131.50698,140.33303 -23.16605,24.46517 -42.66738,45.18575 -43.33628,46.04575 -1.79401,2.30655 10.51401,-10.49305 43.95702,-45.71264 z m -85.7372,20.57777 c 0,-0.0928 -1.98973,-2.08258 -4.42161,-4.42161 l -4.42161,-4.25278 4.25278,4.42161 c 3.94999,4.10679 4.59044,4.70013 4.59044,4.25278 z M 169.4213,345.34307 C 132.85928,306.71742 84.863714,255.86529 70.8467,240.90157 58.710478,227.94567 53.863351,221.74382 48.35965,212.1296 c -1.775797,-3.10207 -3.228723,-5.39944 -3.228723,-5.10527 0,0.88561 4.845322,9.47814 8.098249,14.36116 3.780011,5.67424 4.101265,6.04754 18.363953,21.33928 30.453931,32.65118 123.399481,130.5202 123.954151,130.5202 0.15687,0 -11.59982,-12.55586 -26.12598,-27.9019 z M 43.375745,202.06763 c -0.718951,-1.23635 -0.892564,-0.84063 -0.304045,0.69303 0.209155,0.54504 0.508757,0.86252 0.665781,0.7055 0.157024,-0.15703 -0.0057,-0.78637 -0.361736,-1.39853 z m -4.536853,-12.51011 c -0.194689,-0.48652 -0.339204,-0.34201 -0.368468,0.36847 -0.02648,0.64291 0.117662,1.00312 0.32032,0.80046 0.202656,-0.20265 0.224324,-0.72868 0.04815,-1.16893 z m -1.219755,-4.26914 c -0.194689,-0.48652 -0.339204,-0.34201 -0.368468,0.36847 -0.02648,0.6429 0.117662,1.00312 0.32032,0.80046 0.202657,-0.20266 0.224324,-0.72868 0.04815,-1.16893 z m -0.609878,-2.43951 c -0.194688,-0.48652 -0.339203,-0.34201 -0.368467,0.36847 -0.02648,0.6429 0.117662,1.00312 0.320319,0.80046 0.202657,-0.20266 0.224324,-0.72868 0.04815,-1.16893 z m -0.622583,-3.08751 c -0.169187,-0.41929 -0.307613,-0.0762 -0.307613,0.76235 0,0.83858 0.138426,1.18164 0.307613,0.76235 0.169188,-0.4193 0.169188,-1.10541 0,-1.5247 z m -0.597171,-2.40139 c -0.194689,-0.48652 -0.339204,-0.34201 -0.368468,0.36847 -0.02648,0.64291 0.117662,1.00312 0.32032,0.80046 0.202656,-0.20265 0.224324,-0.72868 0.04815,-1.16893 z m -1.205028,-11.0088 c -0.145879,-0.75863 -0.270773,-0.28156 -0.277542,1.06017 -0.0068,1.34174 0.112586,1.96244 0.265234,1.37934 0.152648,-0.5831 0.158186,-1.68088 0.01231,-2.43951 z M 443.21608,144.70701 c -0.13203,-1.26535 -0.24226,-0.37952 -0.24497,1.9685 -0.002,2.34803 0.10532,3.38332 0.24005,2.30064 0.13472,-1.08267 0.13694,-3.00378 0.005,-4.26914 z m -0.63456,-6.11237 c -0.1534,-0.58701 -0.27892,-0.10673 -0.27892,1.06728 0,1.17402 0.12552,1.6543 0.27892,1.06729 0.15339,-0.58701 0.15339,-1.54757 0,-2.13457 z M 37.071525,132.64833 c -0.0076,-0.67086 -0.366623,0.15247 -0.797724,1.82964 -0.4311,1.67716 -0.777563,3.59827 -0.769916,4.26914 0.0076,0.67086 0.366623,-0.15247 0.797724,-1.82963 0.4311,-1.67717 0.777563,-3.59828 0.769916,-4.26915 z m 404.896325,3.23998 c -0.19469,-0.48652 -0.3392,-0.34201 -0.36847,0.36847 -0.0265,0.6429 0.11767,1.00312 0.32032,0.80046 0.20266,-0.20266 0.22432,-0.72868 0.0481,-1.16893 z m -0.62258,-3.08751 c -0.16919,-0.41929 -0.30762,-0.0762 -0.30762,0.76235 0,0.83858 0.13843,1.18164 0.30762,0.76235 0.16918,-0.41929 0.16918,-1.10541 0,-1.5247 z M 38.336545,128.07425 c 0,-0.57662 -0.193767,-0.46389 -0.524147,0.30494 -0.28828,0.67087 -0.524146,1.63142 -0.524146,2.13457 0,0.57663 0.193767,0.4639 0.524146,-0.30494 0.288281,-0.67086 0.524147,-1.63142 0.524147,-2.13457 z m 401.646435,-0.26137 c -0.22433,-0.89378 -0.52549,-1.50744 -0.66924,-1.36369 -0.14376,0.14376 -0.0778,0.99266 0.14649,1.88644 0.22432,0.89378 0.52548,1.50744 0.66923,1.36368 0.14376,-0.14376 0.0778,-0.99265 -0.14648,-1.88643 z M 45.983299,108.86311 c 9.847557,-19.846741 24.674632,-35.530267 43.65545,-46.177102 2.858452,-1.603381 4.91835,-2.915864 4.577544,-2.91663 -1.140696,-0.0026 -12.829015,7.04328 -17.720085,10.681858 -6.755624,5.025664 -16.881471,15.390758 -21.741498,22.25519 -2.254153,3.183822 -5.861755,9.219334 -8.016894,13.412244 -3.723272,7.24377 -8.35059,18.55463 -8.285091,20.25179 0.01675,0.43394 0.969021,-1.81825 2.116163,-5.00486 1.147142,-3.18661 3.583627,-8.81273 5.414411,-12.50249 z m 390.427291,8.87118 c -7.59188,-19.657857 -20.97847,-37.097179 -37.46532,-48.807753 -4.10698,-2.917176 -10.7263,-6.930036 -9.84349,-5.967458 0.16771,0.182871 3.30469,2.332845 6.97105,4.777721 17.41698,11.614323 32.42322,30.640089 40.01205,50.72958 1.10824,2.93377 2.12105,5.22806 2.2507,5.09842 0.12964,-0.12965 -0.7366,-2.75338 -1.92499,-5.83051 z m -188.9051,-11.23685 c 1.3925,-0.96569 7.68045,-6.825665 13.97323,-13.022166 6.29278,-6.196495 14.14597,-13.847248 17.45154,-17.00167 9.05579,-8.641705 17.77771,-14.030208 31.1924,-19.271027 3.35432,-1.31046 5.27543,-2.211674 4.26914,-2.002696 -2.98754,0.620422 -12.46976,4.535518 -17.38151,7.176625 -9.98785,5.37058 -12.34186,7.346429 -33.3443,27.987607 -18.52825,18.209557 -18.02325,17.873257 -26.27609,17.498477 -2.70418,-0.12281 -4.59837,-0.007 -4.2093,0.25793 0.38906,0.26467 3.20166,0.40281 6.25023,0.30697 4.9637,-0.15605 5.80739,-0.35771 8.07466,-1.93005 z m -18.22905,-1.44606 c -1.4831,-1.25787 -4.75722,-4.37608 -7.27584,-6.929359 C 210.94265,86.911908 194.15721,71.13636 190.54414,68.558127 186.2948,65.52586 176.33433,59.770011 175.33975,59.771973 c -0.33543,6.71e-4 2.17441,1.53301 5.57743,3.405218 8.55741,4.707956 13.40471,8.773791 31.32015,26.270849 14.4135,14.07689 18.54945,17.89038 19.40317,17.89038 0.18285,0 -0.88098,-1.02917 -2.36406,-2.28704 z M 388.4919,62.524828 c 0,-0.369812 -4.66447,-2.766338 -5.31213,-2.729285 -0.26494,0.01516 0.7533,0.688868 2.26274,1.497135 3.07469,1.646411 3.04939,1.636187 3.04939,1.23215 z M 97.580383,58.853169 c 0.838582,-0.479377 1.250249,-0.871594 0.914816,-0.871594 -0.335432,0 -1.295989,0.392217 -2.134571,0.871594 -0.838581,0.479376 -1.250248,0.871593 -0.914816,0.871593 0.335433,0 1.29599,-0.392217 2.134571,-0.871593 z m 75.624797,0.04164 c -1.96624,-1.063064 -12.07501,-4.625418 -13.00849,-4.584221 -0.39257,0.01733 2.26157,1.094401 5.89807,2.393502 3.6365,1.299102 6.76975,2.519929 6.96277,2.712949 0.19302,0.19302 0.64826,0.339957 1.01165,0.326527 0.36338,-0.01343 -0.0254,-0.395372 -0.864,-0.848759 z m 207.96819,-0.04164 c -0.83858,-0.479377 -1.79914,-0.871594 -2.13457,-0.871594 -0.33543,0 0.0762,0.392217 0.91482,0.871594 0.83858,0.479376 1.79914,0.871593 2.13457,0.871593 0.33543,0 -0.0762,-0.392217 -0.91482,-0.871593 z M 103.06928,56.615704 c 0.63579,-0.392827 0.44977,-0.440834 -0.60988,-0.157393 -0.83858,0.224307 -1.93636,0.662184 -2.43951,0.973058 -0.635788,0.392827 -0.44977,0.440834 0.60988,0.157393 0.83858,-0.224307 1.93636,-0.662184 2.43951,-0.973058 z m 274.44483,0.767998 c -0.50315,-0.284658 -1.60093,-0.685258 -2.43951,-0.890223 -1.2709,-0.31063 -1.22014,-0.225969 0.30494,0.508597 1.95449,0.941401 3.66433,1.247093 2.13457,0.381626 z M 107.9483,55.193904 c 1.17401,-0.45211 1.7229,-0.822019 1.21975,-0.822019 -0.50315,0 -1.87537,0.369909 -3.04938,0.822019 -1.17402,0.452111 -1.72291,0.82202 -1.21976,0.82202 0.50315,0 1.87537,-0.369909 3.04939,-0.82202 z m 263.35286,-0.01252 c -0.63171,-0.631722 -12.28688,-3.340451 -14.14367,-3.287076 -1.04816,0.03013 0.15201,0.43293 2.67017,0.896164 2.51575,0.462791 5.80909,1.234363 7.31853,1.714607 2.88394,0.917549 4.69023,1.211559 4.15497,0.676305 z m -49.17206,-1.5079 c 2.78856,-0.668516 5.89346,-1.25478 6.89975,-1.30281 1.58113,-0.07547 1.63097,-0.124835 0.36694,-0.363485 -1.39316,-0.263029 -12.86942,2.074003 -12.86942,2.620736 0,0.382942 0.0834,0.368741 5.60273,-0.954441 z M 112.05227,53.91062 c -0.20266,-0.202656 -0.72868,-0.224324 -1.16894,-0.04815 -0.48651,0.194688 -0.342,0.339203 0.36847,0.368467 0.64291,0.02648 1.00312,-0.117662 0.80047,-0.32032 z m 46.96056,0 c -0.20266,-0.202656 -0.72868,-0.224324 -1.16894,-0.04815 -0.48651,0.194688 -0.342,0.339203 0.36847,0.368467 0.64291,0.02648 1.00312,-0.117662 0.80047,-0.32032 z m -44.52105,-0.609877 c -0.20267,-0.202657 -0.72868,-0.224324 -1.16894,-0.04815 -0.48651,0.194689 -0.342,0.339204 0.36847,0.368468 0.64291,0.02648 1.00312,-0.117663 0.80047,-0.32032 z m 42.08154,0 c -0.20266,-0.202657 -0.72868,-0.224324 -1.16894,-0.04815 -0.48651,0.194689 -0.342,0.339204 0.36847,0.368468 0.64291,0.02648 1.00312,-0.117663 0.80047,-0.32032 z m -39.32439,-0.64532 c -0.41929,-0.169187 -1.1054,-0.169187 -1.52469,0 -0.4193,0.169188 -0.0762,0.307614 0.76234,0.307614 0.83858,0 1.18164,-0.138426 0.76235,-0.307614 z m 36.59264,0 c -0.41929,-0.169187 -1.1054,-0.169187 -1.52469,0 -0.41929,0.169188 -0.0762,0.307614 0.76235,0.307614 0.83858,0 1.18163,-0.138426 0.76234,-0.307614 z m -32.31189,-0.606008 c -0.41291,-0.16706 -1.23624,-0.177229 -1.82964,-0.0226 -0.59339,0.154631 -0.25555,0.291316 0.75075,0.303744 1.00629,0.01243 1.49179,-0.114086 1.07889,-0.281146 z m 29.27411,0 c -0.4129,-0.16706 -1.23624,-0.177229 -1.82963,-0.0226 -0.59339,0.154631 -0.25556,0.291316 0.75074,0.303744 1.0063,0.01243 1.4918,-0.114086 1.07889,-0.281146 z m -23.48477,-0.628871 c -0.5831,-0.152648 -1.68088,-0.158186 -2.43951,-0.01231 -0.75863,0.145878 -0.28156,0.270772 1.06017,0.277541 1.34173,0.0068 1.96243,-0.112586 1.37934,-0.265234 z m 17.37439,-0.01138 c -0.75472,-0.145366 -1.98972,-0.145366 -2.74445,0 -0.75472,0.145366 -0.13722,0.264302 1.37223,0.264302 1.50944,0 2.12695,-0.118936 1.37222,-0.264302 z m 191.81737,-0.0054 c -0.91644,-0.139158 -2.56311,-0.141959 -3.65927,-0.0062 -1.09616,0.135735 -0.34635,0.249592 1.66624,0.253015 2.0126,0.0034 2.90946,-0.107633 1.99303,-0.246791 z m 5.78291,0.03186 c -0.41929,-0.169187 -1.10541,-0.169187 -1.5247,0 -0.41929,0.169188 -0.0762,0.307614 0.76235,0.307614 0.83858,0 1.18164,-0.138426 0.76235,-0.307614 z m 11.29365,-0.03186 c -0.91643,-0.139158 -2.5631,-0.141959 -3.65926,-0.0062 -1.09617,0.135735 -0.34636,0.249592 1.66624,0.253015 2.01259,0.0034 2.90945,-0.107633 1.99302,-0.246791 z"
   id="path2176" /><path
   style="fill:#fa1965;fill-opacity:1;stroke:#fa1965;stroke-width:0.609877;stroke-opacity:1"
   d="M 232.36329,458.65802 C 228.86742,456.79816 205.41455,432.5748 128.98907,351.88767 50.731372,269.26616 35.990123,253.53225 31.004845,247.30528 18.242433,231.36412 7.9325563,208.80248 2.9303047,185.8683 1.6689349,180.08521 1.5635091,178.03098 1.5448689,158.87306 1.5261155,139.59873 1.623635,137.6488 2.9284815,131.2074 9.7612707,97.477192 27.740918,67.03591 53.059333,46.331025 71.499489,31.251039 96.483531,20.888118 120.81402,18.227625 c 8.35829,-0.913962 28.32443,-0.361139 35.92447,0.994677 17.80824,3.176919 35.03686,10.067622 49.70501,19.879862 7.36136,4.924372 12.64224,9.387839 23.62526,19.968369 4.5765,4.408789 8.50066,8.01598 8.72037,8.01598 0.2197,0 4.42127,-3.87501 9.33682,-8.611134 16.61436,-16.007899 27.15443,-23.34702 43.76693,-30.47521 17.08003,-7.328797 31.76691,-10.298679 50.97945,-10.308721 28.76536,-0.01503 54.62342,8.589265 77.92196,25.928628 24.14127,17.966531 43.2729,46.833134 51.29155,77.390834 4.25171,16.20256 4.38946,17.53887 4.05805,39.3686 -0.32823,21.62044 -0.62031,23.95192 -4.74337,37.86419 -5.32101,17.95445 -15.50973,37.86152 -25.51284,49.8479 -5.66929,6.79331 -36.33088,39.54697 -95.16758,101.66097 -80.1902,84.65692 -102.11878,107.22583 -105.85433,108.94529 -3.29353,1.51601 -9.61591,1.49586 -12.50248,-0.0398 z m 58.24329,-93.95134 c 1.9916,-2.01259 3.48386,-3.65926 3.31614,-3.65926 -0.16772,0 -1.93442,1.64667 -3.92602,3.65926 -1.9916,2.0126 -3.48386,3.65927 -3.31614,3.65927 0.16772,0 1.93442,-1.64667 3.92602,-3.65927 z m 10.36791,-10.97779 c 2.66772,-2.68346 4.71319,-4.87902 4.54547,-4.87902 -0.16772,0 -2.48762,2.19556 -5.15534,4.87902 -2.66772,2.68346 -4.71318,4.87902 -4.54547,4.87902 0.16772,0 2.48762,-2.19556 5.15534,-4.87902 z m 10.67286,-11.28273 c 2.83636,-2.85118 5.0198,-5.18396 4.85209,-5.18396 -0.16772,0 -2.62561,2.33278 -5.46197,5.18396 -2.83636,2.85117 -5.0198,5.18395 -4.85209,5.18395 0.16772,0 2.62561,-2.33278 5.46197,-5.18395 z m 10.97779,-11.58767 c 2.83636,-2.85118 5.01981,-5.18396 4.85209,-5.18396 -0.16772,0 -2.6256,2.33278 -5.46197,5.18396 -2.83636,2.85117 -5.0198,5.18395 -4.85208,5.18395 0.16771,0 2.6256,-2.33278 5.46196,-5.18395 z M 333.298,319.57575 c 2.66772,-2.68346 4.71318,-4.87901 4.54546,-4.87901 -0.16772,0 -2.48762,2.19555 -5.15534,4.87901 -2.66772,2.68347 -4.71318,4.87902 -4.54547,4.87902 0.16772,0 2.48763,-2.19555 5.15535,-4.87902 z m -186.92743,1.64847 c 0,-0.0996 -1.16639,-1.26603 -2.59197,-2.59198 l -2.59198,-2.41081 2.41081,2.59198 c 2.24203,2.41051 2.77314,2.87223 2.77314,2.41081 z m 197.60028,-12.9312 c 2.83636,-2.85117 5.0198,-5.18395 4.85209,-5.18395 -0.16772,0 -2.6256,2.33278 -5.46197,5.18395 -2.83636,2.85118 -5.0198,5.18396 -4.85208,5.18396 0.16771,0 2.6256,-2.33278 5.46196,-5.18396 z m -205.52868,4.40399 c 0,-0.0935 -1.8525,-1.94605 -4.11667,-4.11667 l -4.11668,-3.94658 3.94659,4.11667 c 3.66576,3.82374 4.28676,4.39547 4.28676,3.94658 z m -14.02718,-14.7719 c -2.49896,-2.51575 -4.68077,-4.57408 -4.84849,-4.57408 -0.16772,0 1.73966,2.05833 4.23861,4.57408 2.49896,2.51574 4.68077,4.57408 4.84849,4.57408 0.16772,0 -1.73966,-2.05834 -4.23861,-4.57408 z m 229.61884,-0.30494 c 2.33003,-2.34803 4.0992,-4.26914 3.93149,-4.26914 -0.16772,0 -2.21133,1.92111 -4.54137,4.26914 -2.33004,2.34803 -4.09921,4.26914 -3.93149,4.26914 0.16772,0 2.21133,-1.92111 4.54137,-4.26914 z M 99.298633,271.24297 c -10.82375,-11.48856 -21.99402,-23.22108 -24.822821,-26.07226 -5.925648,-5.97251 6.209113,7.07603 28.500178,30.64634 8.48584,8.97282 15.5578,16.31422 15.71549,16.31422 0.15768,0 -8.5691,-9.39973 -19.392847,-20.8883 z m 265.103107,15.39941 c 2.33004,-2.34803 4.09921,-4.26915 3.93149,-4.26915 -0.16771,0 -2.21133,1.92112 -4.54136,4.26915 -2.33004,2.34802 -4.09921,4.26914 -3.93149,4.26914 0.16771,0 2.21133,-1.92112 4.54136,-4.26914 z m 10.06298,-10.67286 c 2.16093,-2.18031 3.79174,-3.9642 3.62403,-3.9642 -0.16772,0 -2.07298,1.78389 -4.23391,3.9642 -2.16093,2.18031 -3.79174,3.9642 -3.62402,3.9642 0.16771,0 2.07297,-1.78389 4.2339,-3.9642 z m 9.4531,-10.06298 c 1.65194,-1.67716 2.86631,-3.04938 2.6986,-3.04938 -0.16772,0 -1.65653,1.37222 -3.30848,3.04938 -1.65194,1.67717 -2.86631,3.04939 -2.6986,3.04939 0.16772,0 1.65654,-1.37222 3.30848,-3.04939 z m 13.11236,-13.84922 c 0,-0.45794 -0.54756,0.0262 -3.07487,2.71896 l -2.71896,2.89692 2.89692,-2.71896 c 1.5933,-1.49543 2.89691,-2.79904 2.89691,-2.89692 z m 6.40372,-6.88661 c 1.31016,-1.34173 2.24489,-2.43951 2.07718,-2.43951 -0.16772,0 -1.3769,1.09778 -2.68706,2.43951 -1.31016,1.34173 -2.2449,2.43951 -2.07718,2.43951 0.16771,0 1.37689,-1.09778 2.68706,-2.43951 z M 64.369308,234.00334 c -2.883268,-3.12316 -6.356419,-7.17123 -7.71811,-8.99569 -2.6568,-3.55973 -4.131077,-5.19341 -3.268732,-3.62216 1.665716,3.03505 14.958559,18.29633 15.936424,18.29633 0.161002,0 -2.066307,-2.55532 -4.949582,-5.67848 z M 426.91418,217.72623 c 0.35903,-0.67087 0.51557,-1.21975 0.34785,-1.21975 -0.16771,0 -0.5987,0.54888 -0.95773,1.21975 -0.35904,0.67087 -0.51557,1.21975 -0.34786,1.21975 0.16772,0 0.5987,-0.54888 0.95774,-1.21975 z M 51.229701,217.11635 c -0.359036,-0.67086 -0.790016,-1.21975 -0.957732,-1.21975 -0.167716,0 -0.01118,0.54889 0.347855,1.21975 0.359036,0.67087 0.790015,1.21976 0.957732,1.21976 0.167716,0 0.01118,-0.54889 -0.347855,-1.21976 z m 377.514109,-2.43951 c 0.35903,-0.67086 0.51557,-1.21975 0.34785,-1.21975 -0.16771,0 -0.59869,0.54889 -0.95773,1.21975 -0.35903,0.67087 -0.51557,1.21976 -0.34785,1.21976 0.16771,0 0.59869,-0.54889 0.95773,-1.21976 z m 3.08054,-5.55061 c 1.03309,-2.04654 1.77771,-3.82161 1.65471,-3.94461 -0.123,-0.12299 -1.09896,1.55144 -2.16881,3.72098 -1.06985,2.16954 -1.81447,3.94461 -1.65471,3.94461 0.15976,0 1.13572,-1.67444 2.16881,-3.72098 z m 3.60943,-8.17163 c 0,-0.33543 -0.26604,-0.19821 -0.5912,0.30494 -0.32516,0.50315 -0.59119,1.18926 -0.59119,1.52469 0,0.33544 0.26603,0.19821 0.59119,-0.30493 0.32516,-0.50315 0.5912,-1.18927 0.5912,-1.5247 z M 248.52504,105.50879 c 0.60713,-0.67087 0.96664,-1.21976 0.79893,-1.21976 -0.16772,0 -0.80168,0.54889 -1.40881,1.21976 -0.60713,0.67086 -0.96664,1.21975 -0.79893,1.21975 0.16772,0 0.80168,-0.54889 1.40881,-1.21975 z m 16.16175,-15.551874 c 4.85509,-4.863773 8.69022,-8.843223 8.52251,-8.843223 -0.16772,0 -4.27729,3.97945 -9.13239,8.843223 -4.85509,4.863772 -8.69022,8.843222 -8.5225,8.843222 0.16771,0 4.27729,-3.97945 9.13238,-8.843222 z M 56.957332,90.884789 c 1.640752,-2.180671 2.507897,-3.570411 1.92699,-3.088297 -1.080914,0.897075 -5.903834,7.526961 -6.673654,9.174014 -0.235169,0.503149 0.06541,0.23179 0.667951,-0.603017 0.602542,-0.834812 2.437963,-3.302022 4.078713,-5.4827 z M 217.72623,94.36858 c 0,-0.08933 -3.22473,-3.314056 -7.16606,-7.16606 l -7.16606,-7.003643 7.00364,7.16606 c 6.5054,6.656257 7.32848,7.442858 7.32848,7.003643 z m 204.9188,-1.897481 c 0,-0.126641 -0.48027,-0.60692 -1.06728,-1.067286 -0.9673,-0.758608 -0.98887,-0.737037 -0.23027,0.230266 0.79673,1.015903 1.29755,1.338973 1.29755,0.83702 z m -1.82963,-2.419658 c 0,-0.115731 -0.6175,-0.733232 -1.37222,-1.372225 l -1.37223,-1.16181 1.16181,1.372224 c 1.09182,1.289549 1.58264,1.649865 1.58264,1.161811 z m -2.43951,-3.02981 c 0,-0.10496 -0.89194,-0.996906 -1.9821,-1.982102 l -1.9821,-1.791265 1.79126,1.982102 c 1.66971,1.847599 2.17294,2.262432 2.17294,1.791265 z M 61.597617,85.077897 c 0.787809,-0.838582 1.295154,-1.524694 1.127438,-1.524694 -0.167717,0 -0.949506,0.686112 -1.737316,1.524694 -0.787806,0.838581 -1.295152,1.524693 -1.127436,1.524693 0.167716,0 0.949508,-0.686112 1.737314,-1.524693 z M 408.00798,76.645923 c 0,-0.109245 -0.75473,-0.863969 -1.67717,-1.677163 l -1.67716,-1.478534 1.47853,1.677163 c 1.38192,1.567561 1.8758,1.956845 1.8758,1.478534 z M 71.660594,75.01492 c 0.607127,-0.670866 0.966643,-1.219755 0.798927,-1.219755 -0.167716,0 -0.801678,0.548889 -1.408805,1.219755 -0.607126,0.670865 -0.966643,1.219754 -0.798927,1.219754 0.167717,0 0.801678,-0.548889 1.408805,-1.219754 z M 281.23127,73.947634 c 0.75861,-0.9673 0.73704,-0.988871 -0.23026,-0.230262 -0.58701,0.460362 -1.06729,0.940641 -1.06729,1.067285 0,0.50195 0.50083,0.178879 1.29755,-0.837023 z M 75.092716,72.118002 c 0.758608,-0.9673 0.737036,-0.988871 -0.230266,-0.230262 -0.587007,0.460362 -1.067285,0.94064 -1.067285,1.067285 0,0.50195 0.500825,0.178879 1.297551,-0.837023 z M 285.11768,70.745778 c 0.60713,-0.670865 0.96665,-1.219755 0.79893,-1.219755 -0.16772,0 -0.80168,0.54889 -1.40881,1.219755 -0.60712,0.670865 -0.96664,1.219755 -0.79892,1.219755 0.16771,0 0.80168,-0.54889 1.4088,-1.219755 z m -91.78655,0.379615 c 0,-0.126645 -0.48027,-0.606923 -1.06728,-1.067286 -0.9673,-0.758608 -0.98887,-0.737037 -0.23027,0.230263 0.79673,1.015902 1.29755,1.338973 1.29755,0.837023 z m 100.0199,-6.294277 c 0,-0.40885 -3.53492,1.797947 -5.34579,3.3373 -0.91729,0.779753 -0.0898,0.404791 1.83899,-0.833248 1.92874,-1.238039 3.5068,-2.364862 3.5068,-2.504052 z m 4.26914,-2.350006 c 0,-0.167717 -0.82334,0.120824 -1.82963,0.6412 -1.0063,0.520377 -1.82964,1.083362 -1.82964,1.251078 0,0.167717 0.82334,-0.120824 1.82964,-0.6412 1.00629,-0.520377 1.82963,-1.083362 1.82963,-1.251078 z"
   id="path2215" /><path
   style="fill:#fa1965;fill-opacity:1;stroke:#fa1965;stroke-width:0.609877;stroke-opacity:1"
   d="m 232.66823,458.89871 c -1.0063,-0.51773 -4.66694,-3.74076 -8.13477,-7.1623 C 203.25375,430.74074 44.120614,262.98934 32.919197,249.74479 19.760739,234.18624 8.0397027,209.49931 2.949539,186.62248 1.602116,180.56673 1.525194,179.04233 1.5339042,158.56812 1.5440258,134.77627 1.6712467,133.64694 6.0692192,118.30849 15.456302,85.569921 36.757992,56.065054 63.732188,38.439792 70.580818,33.964814 85.715426,26.66593 93.311241,24.174864 c 14.221209,-4.663883 25.756639,-6.48842 41.022289,-6.48842 21.74513,0 37.7914,3.53792 56.13754,12.377337 16.80028,8.094603 21.52408,11.672363 46.18941,34.983419 l 2.16263,2.043883 9.42504,-8.916438 c 5.18378,-4.904041 11.48339,-10.579927 13.99913,-12.613082 17.90552,-14.470737 41.31984,-24.336626 64.63101,-27.233007 7.48224,-0.929659 25.06448,-0.788714 33.0706,0.265105 22.56191,2.969745 44.04045,11.987185 63.00108,26.450048 5.45036,4.157445 16.2951,14.897793 21.33336,21.127988 14.15454,17.503231 24.38778,38.927043 30.00516,62.817373 l 1.72082,7.31853 -0.0268,21.95558 c -0.0247,20.29813 -0.12825,22.42289 -1.37131,28.14571 -4.85525,22.35268 -16.60023,47.42069 -29.24579,62.42109 -6.11166,7.24976 -35.96111,39.11387 -97.11781,103.67268 -77.55942,81.874 -99.47312,104.38298 -103.38185,106.19019 -3.0791,1.42364 -9.61616,1.53396 -12.19754,0.20586 z"
   id="path2254" /><path
   style="fill:#fa1965;fill-opacity:1;stroke:#fa1965;stroke-width:0.609877;stroke-opacity:1"
   d="M 232.05835,458.70833 C 228.20126,456.31631 185.30044,411.82461 107.00689,329.01961 43.772742,262.14177 34.568121,252.24483 29.710362,245.90927 19.988071,233.2293 11.186819,215.57222 5.9116275,198.16421 1.6130561,183.97902 1.5246935,183.18146 1.5246935,158.56812 c 0,-24.52811 0.048783,-24.97936 4.2953968,-39.73325 C 15.387013,85.596799 35.886146,56.823923 62.580971,39.164505 76.801543,29.757172 92.014752,23.458133 109.61535,19.689885 c 7.42584,-1.589856 8.57607,-1.66724 24.86262,-1.672675 18.70836,-0.0062 22.69847,0.443306 35.18817,3.96452 8.20365,2.312849 15.29517,5.136825 24.38151,9.709169 12.42547,6.252621 19.37513,11.434091 35.11495,26.180696 l 9.62778,9.020255 10.35623,-9.71754 c 14.81666,-13.902894 22.40422,-19.424995 36.13693,-26.299872 12.01239,-6.013649 25.77315,-10.374641 38.63963,-12.245484 8.50694,-1.236948 28.45297,-1.242415 37.12376,-0.01018 22.90717,3.255423 45.57735,13.10552 63.42774,27.559072 6.75988,5.473518 18.03902,17.28164 23.41535,24.51353 13.30052,17.890977 22.86855,39.584584 27.32632,61.956954 1.11696,5.60567 1.19096,7.84929 0.91534,27.74942 -0.3278,23.66757 -0.44681,24.63634 -4.73851,38.57055 -5.79372,18.81096 -16.23124,38.6131 -26.92452,51.08143 -6.55705,7.6455 -33.13751,36.00202 -93.17927,99.40535 -83.71004,88.39674 -102.22652,107.42766 -106.51578,109.47512 -2.84282,1.357 -10.38145,1.22547 -12.71525,-0.22187 z"
   id="path2441" /><path
   style="fill:#fa1965;fill-opacity:1;stroke:#fa1965;stroke-width:0.609877;stroke-opacity:1"
   d="M 232.05835,458.71414 C 229.98513,457.43498 207.98657,435.28169 186.24849,412.58206 141.19863,365.53948 52.585452,271.75436 37.37189,255.01621 23.73424,240.01191 14.308352,223.55235 7.2294555,202.38128 1.939685,186.561 1.7457888,185.26103 1.3931503,163.25209 1.0306293,140.62637 1.5601204,133.89475 4.5516522,123.09686 12.280702,95.19897 24.332109,73.829356 42.679094,55.489093 61.355788,36.819242 82.372938,25.62034 110.38781,19.41078 c 5.89936,-1.307607 7.79668,-1.418709 24.09016,-1.410664 14.32104,0.0071 18.7889,0.214541 23.48028,1.090329 17.55207,3.27663 37.57433,11.702269 51.38529,21.623634 5.3733,3.860016 14.48441,11.797806 23.07728,20.105429 3.21826,3.11142 6.05409,5.657128 6.30184,5.657128 0.24776,0 4.20131,-3.547803 8.78569,-7.884006 13.88726,-13.135495 21.39422,-18.944768 32.26054,-24.964866 11.12029,-6.160803 25.6638,-11.546031 38.28217,-14.175274 7.66607,-1.59735 32.35781,-2.316165 40.93474,-1.191673 23.99498,3.145901 46.9029,12.822439 65.0959,27.49717 5.30414,4.2784 16.87701,15.917189 21.20772,21.328526 13.74491,17.17463 24.18994,39.547557 29.51228,63.214387 l 1.62513,7.22645 -0.28441,22.26053 c -0.32436,25.38749 -0.49253,26.6201 -5.78779,42.42478 -6.22525,18.58042 -15.40917,35.65123 -25.61489,47.61228 -6.67314,7.82088 -38.33831,41.63414 -95.87193,102.37566 -75.72135,79.94336 -100.35407,105.24723 -103.89662,106.72739 -3.21169,1.34194 -10.58929,1.21975 -12.91284,-0.21385 z"
   id="path2480" /><path
   style="fill:#fa1965;fill-opacity:1;stroke:#fa1965;stroke-width:0.609877;stroke-opacity:1"
   d=""
   id="path2519" /><path
   style="fill:#fa1965;fill-opacity:1;stroke:#fa1965;stroke-width:0.609877;stroke-opacity:1"
   d="m 235.3127,459.88769 c -2.91298,-0.57481 -4.04688,-1.38992 -10.3824,-7.46337 C 213.34546,441.31866 141.01888,365.6027 76.182018,296.70535 30.080068,247.71622 27.735411,244.99998 20.228245,231.88425 11.093938,215.92575 3.5442597,195.08587 1.8485652,181.14958 0.85231512,172.96178 1.0526646,141.12326 2.1460924,133.86809 6.4157577,105.53777 23.652374,73.108817 45.249943,52.772537 62.634719,36.403024 83.148793,25.646021 108.25324,19.735384 c 7.22776,-1.701718 7.55679,-1.722909 26.52966,-1.708643 17.62406,0.01325 19.74017,0.128372 25.61485,1.393489 14.78242,3.183404 33.02862,10.706703 45.00445,18.556301 6.88843,4.515044 13.67333,10.141112 25.07974,20.796237 l 8.18162,7.642744 1.78888,-1.505246 c 0.9839,-0.827886 4.98662,-4.501151 8.89494,-8.162811 13.33499,-12.493351 20.98378,-18.227327 32.46344,-24.336439 11.23299,-5.977845 25.27901,-10.934608 37.44604,-13.214505 7.65529,-1.434473 22.33982,-2.107003 32.59986,-1.493025 41.40379,2.477673 79.80023,25.798155 102.73417,62.396689 9.30232,14.844861 16.46927,32.643955 20.42222,50.718525 1.01337,4.63354 2.35184,15.60006 2.05552,16.84153 -0.0492,0.20617 -0.37863,8.16507 -0.73205,17.68645 -0.68878,18.55614 -0.94076,20.58153 -3.78513,30.42396 -5.44991,18.8585 -15.80155,39.51538 -26.1461,52.17499 -7.25292,8.8761 -46.26518,50.47524 -128.65734,137.18855 -38.53787,40.55902 -63.41202,66.18823 -68.42927,70.50645 -3.984,3.42892 -4.76662,3.77174 -10.2468,4.48856 -0.83858,0.10969 -2.53024,0.001 -3.75924,-0.2415 z"
   id="path2743" /><path
   style="fill:#fa1965;fill-opacity:1;stroke:#fa1965;stroke-width:0.609877;stroke-opacity:1"
   d="m 234.21729,459.77313 c -1.16061,-0.3502 -3.70011,-2.01408 -5.64334,-3.69753 C 220.92774,449.45159 147.4915,372.59373 58.525509,278.10409 33.931858,251.98349 27.31931,244.15629 21.517348,234.29792 11.889455,217.93873 3.5964988,195.79615 1.8343767,181.74346 0.73852969,173.00423 1.3332971,135.27859 2.6564662,129.59895 8.176783,105.90325 18.229875,84.540503 32.216804,66.783453 37.665613,59.86594 49.808343,48.109535 56.96679,42.820896 72.008687,31.70799 89.722113,23.783804 109.35651,19.384106 c 5.74241,-1.286766 7.65362,-1.392723 25.12146,-1.392723 20.38846,0 22.60006,0.223612 34.15313,3.453186 8.31026,2.32307 16.52952,5.562358 25.46443,10.035763 13.08269,6.55006 18.92701,10.949962 37.85266,28.497404 3.56131,3.301973 6.73321,5.909199 7.04865,5.793835 0.31544,-0.115363 4.6857,-3.987732 9.7117,-8.605265 11.53151,-10.59435 16.11581,-14.364876 22.99184,-18.910469 12.07007,-7.979264 31.00676,-15.799295 45.32455,-18.717076 17.41555,-3.549063 40.88452,-2.840364 58.40436,1.763652 26.39387,6.936016 49.12972,21.270468 67.12011,42.31775 7.57573,8.862976 12.95516,17.069373 18.86334,28.776262 5.78348,11.459795 9.25482,20.819315 12.55386,33.848195 2.01351,7.95194 2.44917,10.80899 2.74346,17.99138 0.45645,11.14055 -0.73491,37.72581 -1.95412,43.60624 -2.42414,11.69196 -10.26124,31.49299 -17.37488,43.89894 -8.48518,14.79787 -9.61107,16.07685 -76.78045,87.22064 -94.51491,100.10734 -130.68913,137.51938 -135.24979,139.87779 -2.3548,1.21771 -8.48745,1.73192 -11.13353,0.93352 z"
   id="path2782" /><path
   style="fill:#fa1965;fill-opacity:1;stroke:#fa1965;stroke-opacity:1"
   d="m 233.7224,459.80949 c -1.19198,-0.36651 -4.60115,-3.12172 -8.46833,-6.84389 C 206.94257,435.34069 55.973965,276.40409 34.828232,252.48924 22.151562,238.15251 11.426813,218.08018 5.2700935,197.16854 2.0627558,186.27464 1.7527764,184.2518 1.2708607,171.07061 0.39571273,147.13387 1.2961871,133.65489 4.5635447,121.78322 15.674733,81.411643 41.622107,48.26825 75.509213,31.162095 84.77347,26.485511 97.636059,21.947193 109.52109,19.16165 c 5.63303,-1.320235 35.36585,-1.918233 44.21644,-0.889298 18.12341,2.106959 42.50563,12.152504 57.97308,23.885076 4.49373,3.408638 21.84864,18.833561 24.87566,22.109307 0.8132,0.880013 1.68381,1.600024 1.93471,1.600024 0.25089,0 4.25112,-3.475443 8.88938,-7.723207 17.49914,-16.02587 24.26882,-20.927365 38.22778,-27.678337 12.86341,-6.221126 26.46521,-10.581726 37.85722,-12.136644 8.15736,-1.113412 22.14723,-1.438655 30.49297,-0.708915 30.27553,2.647253 57.38458,15.000234 79.35802,36.161653 18.11682,17.447329 31.33495,39.925999 39.20366,66.669481 3.91223,13.29652 4.07568,14.74275 3.99784,35.37288 -0.0392,10.39841 -0.39639,21.87995 -0.79369,25.51454 -2.0177,18.45879 -15.16503,49.03621 -28.04865,65.23417 -5.77347,7.25872 -13.74612,15.91827 -53.73652,58.36632 -93.86477,99.63334 -142.84357,150.42875 -147.96488,153.45288 -2.88101,1.70123 -9.04562,2.41293 -12.28171,1.41791 z"
   id="path2821" /><path
   style="fill:#fa1965;fill-opacity:1;stroke:#fa1965;stroke-width:0.609877;stroke-opacity:1"
   d=""
   id="path2977" /><path
   style="fill:#fa1965;fill-opacity:1;stroke:#fa1965;stroke-width:0.609877;stroke-opacity:1"
   d=""
   id="path3053" /><path
   style="fill:#fa1965;fill-opacity:1;stroke:#fa1965;stroke-width:0.609877;stroke-opacity:1"
   d=""
   id="path3092" /><path
   style="fill:#fa1965;fill-opacity:1;stroke:#fa1965;stroke-width:0.609877;stroke-opacity:1"
   d=""
   id="path3168" /><path
   style="fill:#fa1965;fill-opacity:1;stroke:#fa1965;stroke-width:0.609877;stroke-opacity:1"
   d="M 231.75341,458.76404 C 226.44545,455.29633 177.00247,404.0932 91.440491,313.45607 31.802598,250.28072 28.535206,246.58473 20.911486,233.67527 11.978932,218.54953 3.7985128,196.97686 1.7969636,183.26816 0.70923996,175.81829 0.67977861,141.28028 1.7550849,134.17303 4.4672262,116.24708 13.552346,93.529663 24.65463,76.91251 44.556879,47.124164 71.771055,28.138027 106.61116,19.735031 c 7.93118,-1.912902 22.51262,-2.663781 38.85431,-2.000824 10.39863,0.421855 12.43257,0.690143 19.96799,2.633889 13.95492,3.599639 28.95768,10.069368 40.09522,17.290501 7.01975,4.551317 12.35192,8.980931 26.79786,22.261857 3.19249,2.935035 6.04663,5.336427 6.34251,5.336427 0.29588,0 4.10548,-3.224726 8.46578,-7.166059 20.18578,-18.246218 29.06131,-24.283128 45.83146,-31.173395 16.55898,-6.803513 27.37824,-9.146067 44.63306,-9.663826 23.75935,-0.712938 42.88778,3.299247 62.81377,13.175178 14.56746,7.220081 24.44291,14.501425 36.60077,26.986409 18.55128,19.050444 31.33781,43.380972 38.57603,73.403512 1.51507,6.28418 1.38741,45.322 -0.17751,54.27909 -3.05783,17.50205 -14.65435,44.19708 -25.6062,58.94511 -6.27894,8.45537 -18.2545,21.43464 -82.63145,89.55705 -79.74048,84.3798 -117.66857,123.37907 -121.98074,125.42578 -1.18684,0.56332 -4.07899,1.1383 -6.42702,1.27774 -3.91426,0.23245 -4.49728,0.10449 -7.01359,-1.53943 z"
   id="path3281" /></svg>
